<svg id="Layer_1" data-name="Layer 1" xmlns="http://www.w3.org/2000/svg" xmlns:xlink="http://www.w3.org/1999/xlink" viewBox="0 0 661.88 498.46" width="0" height="0" class="illustration styles_illustrationTablet__1DWOa"><defs><linearGradient id="linear-gradient" x1="340.5" y1="104.28" x2="345.29" y2="764.05" gradientUnits="userSpaceOnUse"><stop offset="0" stop-color="#010101" stop-opacity="0"></stop><stop offset="0.95" stop-color="#010101"></stop></linearGradient><linearGradient id="linear-gradient-2" x1="456.88" y1="463.95" x2="60.8" y2="-208.03" xlink:href="#linear-gradient"></linearGradient><linearGradient id="linear-gradient-3" x1="369.63" y1="397.72" x2="330.72" y2="-148.64" xlink:href="#linear-gradient"></linearGradient><linearGradient id="linear-gradient-4" x1="456.24" y1="235.87" x2="454.22" y2="311.26" xlink:href="#linear-gradient"></linearGradient><linearGradient id="linear-gradient-5" x1="218.7" y1="293.61" x2="246.58" y2="293.61" xlink:href="#linear-gradient"></linearGradient><linearGradient id="linear-gradient-6" x1="370.15" y1="295.41" x2="420.41" y2="298.65" xlink:href="#linear-gradient"></linearGradient><linearGradient id="linear-gradient-7" x1="400.41" y1="243.69" x2="375.69" y2="437.02" gradientUnits="userSpaceOnUse"><stop offset="0" stop-color="#fff" stop-opacity="0"></stop><stop offset="0.95" stop-color="#fff"></stop></linearGradient><linearGradient id="linear-gradient-8" x1="476.73" y1="278.53" x2="516.36" y2="281.09" xlink:href="#linear-gradient"></linearGradient><linearGradient id="linear-gradient-9" x1="500.33" y1="237.39" x2="480.97" y2="388.72" xlink:href="#linear-gradient-7"></linearGradient><linearGradient id="linear-gradient-10" x1="441.62" y1="341.08" x2="416.69" y2="13.99" xlink:href="#linear-gradient-7"></linearGradient><linearGradient id="linear-gradient-11" x1="343.22" y1="155.76" x2="333.9" y2="244.52" xlink:href="#linear-gradient"></linearGradient><linearGradient id="linear-gradient-12" x1="430.32" y1="154.48" x2="428.29" y2="234.74" xlink:href="#linear-gradient"></linearGradient><linearGradient id="linear-gradient-13" x1="463.78" y1="155.33" x2="461.75" y2="235.58" xlink:href="#linear-gradient"></linearGradient><linearGradient id="linear-gradient-14" x1="491.72" y1="156.03" x2="489.7" y2="236.29" xlink:href="#linear-gradient"></linearGradient><linearGradient id="linear-gradient-15" x1="222.25" y1="198.21" x2="223.47" y2="267.12" xlink:href="#linear-gradient-7"></linearGradient><linearGradient id="linear-gradient-16" x1="333.04" y1="196.26" x2="334.26" y2="265.16" xlink:href="#linear-gradient-7"></linearGradient><linearGradient id="linear-gradient-17" x1="210.27" y1="217.68" x2="209.67" y2="470.6" xlink:href="#linear-gradient"></linearGradient><linearGradient id="linear-gradient-18" x1="271.64" y1="248.62" x2="275.29" y2="449.25" xlink:href="#linear-gradient"></linearGradient><linearGradient id="linear-gradient-19" x1="272.81" y1="267.52" x2="272.5" y2="535.33" xlink:href="#linear-gradient"></linearGradient><linearGradient id="linear-gradient-20" x1="346.07" y1="218.01" x2="345.46" y2="470.93" xlink:href="#linear-gradient"></linearGradient><linearGradient id="linear-gradient-21" x1="463.71" y1="205.98" x2="479.82" y2="471.66" xlink:href="#linear-gradient-7"></linearGradient><linearGradient id="linear-gradient-22" x1="330.37" y1="191.93" x2="202.09" y2="438.16" xlink:href="#linear-gradient-7"></linearGradient><linearGradient id="linear-gradient-23" x1="458.55" y1="274.64" x2="457.33" y2="375.86" xlink:href="#linear-gradient-7"></linearGradient><linearGradient id="linear-gradient-24" x1="413.92" y1="171.05" x2="395.28" y2="100.93" xlink:href="#linear-gradient"></linearGradient><linearGradient id="linear-gradient-25" x1="400.65" y1="150.61" x2="500.06" y2="188.61" xlink:href="#linear-gradient"></linearGradient><linearGradient id="linear-gradient-26" x1="343.04" y1="170.77" x2="346.78" y2="115.8" xlink:href="#linear-gradient"></linearGradient><linearGradient id="linear-gradient-27" x1="329.86" y1="173.01" x2="294.44" y2="130.3" xlink:href="#linear-gradient"></linearGradient><linearGradient id="linear-gradient-28" x1="401.6" y1="149.19" x2="399.17" y2="208.17" xlink:href="#linear-gradient"></linearGradient><linearGradient id="linear-gradient-29" x1="445.72" y1="115.45" x2="272.75" y2="241.91" xlink:href="#linear-gradient"></linearGradient><linearGradient id="linear-gradient-30" x1="407.63" y1="106.76" x2="337.92" y2="234.43" xlink:href="#linear-gradient"></linearGradient><linearGradient id="linear-gradient-31" x1="355.06" y1="130.21" x2="715.07" y2="124.44" xlink:href="#linear-gradient"></linearGradient><linearGradient id="linear-gradient-32" x1="381.15" y1="129.84" x2="741.87" y2="124.05" xlink:href="#linear-gradient"></linearGradient></defs><title>on the road 2</title><path d="M671,280.34c-14.51,47.55-30.18,97-65.08,132.45C582.56,436.5,552.24,452,521.62,465,474.08,485.08,424,500,373,507.32c-1.77-.08-3.54-.17-5.35-.3-2.81-.17-5.62-.39-8.43-.6-4.88-.35-9.76-.74-14.59-1.21-7.13-.69-14.21-1.47-21.29-2.33-4.71-.61-9.42-1.21-14.12-1.91-2.94-.38-5.92-.82-8.86-1.25-4.79-.73-9.59-1.51-14.38-2.29-3.89-.64-7.77-1.34-11.62-2-.13,0-.25,0-.34,0-3.84-.69-7.69-1.38-11.53-2.12s-7.86-1.51-11.79-2.33c-2.64-.52-5.27-1-7.9-1.6-2.38-.47-4.76-.95-7.13-1.46-6.78-1.43-13.56-2.94-20.3-4.45-25.18-5.66-50.57-12-73.15-24.49-21.51-12-39.78-29-56.92-46.64-13.56-14-26.74-28.72-38.18-44.52A216.77,216.77,0,0,1,24,328.1C9.87,296.23,5.42,258.75,18.46,226.4c19.22-47.46,67.2-73,95.58-113.71,1.12-1.6,2.2-3.2,3.23-4.84,13.18-20.73,15.9-44.22,33.39-62.36C170,25.63,197.21,14,224.38,10.38c38.17-5.09,76.74,3.41,114,13.3S412.92,44.93,451.45,45.8c32.95.69,65.68-6.44,98.68-6.65s68.45,7.9,90.08,32.82a87.42,87.42,0,0,1,16.59,29.49c1.16,3.33,2.15,6.7,3.06,10.15,4,22.33,9,77,11.19,118.37C672.34,255,672.6,275.07,671,280.34Z" transform="translate(-10.49 -8.86)" fill="#ffe27c" opacity="0.24" style="isolation: isolate;"></path><path d="M455.94,293.81c-137.64,25.65-317.38,57.7-408.8,73.94-36.79-57.7-44-97.82-30-137.55,1.81-5.27,4.36-10.75,9.24-13.43,3.46-1.86,7.52-2,11.45-2.16,25.22-.86,50.7-1.68,75.35,3.71,13.31,2.9,26.39,7.65,40,7.91,15.55.3,30.62-5.23,46.13-6.44,38.78-3,73.8,20.51,109.26,36.41A293.49,293.49,0,0,0,376.13,277a291.93,291.93,0,0,0,34.25,4.19c9.07.56,27.12-3.19,35,.35C452.79,284.83,455.89,289.06,455.94,293.81Z" transform="translate(-10.49 -8.86)" fill="#ffe27c"></path><path d="M671.27,280.2c-14.51,47.55-30.19,97-65.08,132.45-23.37,23.71-53.68,39.22-84.3,52.17-47.55,20.13-97.65,35.07-148.61,42.37-1.77-.09-3.54-.18-5.35-.31-2.81-.17-5.62-.38-8.42-.6-4.88-.35-9.76-.73-14.6-1.21q-10.68-1-21.29-2.33c-4.71-.61-9.41-1.21-14.12-1.9-2.94-.39-5.92-.82-8.85-1.25-4.8-.74-9.59-1.52-14.39-2.29-3.88-.65-7.77-1.34-11.61-2-.13,0-.26,0-.35,0-3.84-.69-7.69-1.38-11.53-2.11s-7.86-1.51-11.79-2.33c-2.63-.52-5.27-1-7.9-1.6-2.38-.48-4.75-.95-7.13-1.47-6.78-1.42-13.56-2.94-20.29-4.45-25.18-5.66-50.58-12.05-73.16-24.48-21.51-12-39.78-29-56.92-46.65C72,398.1,58.85,383.42,47.4,367.61A217.6,217.6,0,0,1,24.21,328c-14.08-31.88-18.52-69.36-5.48-101.71,19.22-47.46,67.2-73,95.57-113.71,29.62-1.64,53.85-7.12,77.52,17.71,4.88,5.14,10.27,11.53,17.31,10.88,3.59-.34,6.7-2.5,9.94-4.1a32.48,32.48,0,0,1,26.47-.86c14.29,5.91,24,21.94,39.34,23.66,4.58.48,9.16-.39,13.74-.34,13.17,0,25.17,7.08,36.57,13.73A1062.34,1062.34,0,0,0,442.38,228c6.05,2.63,12.48,5.31,19.05,4.53,6.13-.69,11.53-4.27,17.23-6.69a47.87,47.87,0,0,1,44.69,4.53,16.84,16.84,0,0,1,1.78,1.3c.56.39,1.12.82,1.64,1.25.08-.35.17-.65.26-1,.13-.61.3-1.21.43-1.77,4.36-17.67,9.63-35.93,22.71-48.37,6.83-6.48,15.55-11.1,20.91-18.83,3.71-5.4,5.52-11.92,8.81-17.62,3.54-6.13,8.76-11.19,14.29-15.68a134.05,134.05,0,0,1,62.88-28.28c.86-.18,1.94,3.62,3.06,10.14,4,22.33,9,77,11.19,118.38C672.61,254.81,672.86,274.93,671.27,280.2Z" transform="translate(-10.49 -8.86)" fill="url(#linear-gradient)"></path><path d="M671,280.34c-14.51,47.55-30.18,97-65.08,132.45C582.56,436.5,552.24,452,521.62,465,474.08,485.08,424,500,373.06,507.32h0c-1.77-.08-3.54-.17-5.35-.3-2.81-.17-5.62-.39-8.43-.6-4.88-.35-9.76-.74-14.59-1.21-7.13-.69-14.21-1.47-21.29-2.33-4.71-.61-9.42-1.21-14.12-1.91-2.94-.38-5.92-.82-8.86-1.25-4.79-.73-9.59-1.51-14.38-2.29-3.89-.64-7.77-1.34-11.62-2-.13,0-.25,0-.34,0-3.84-.69-7.69-1.38-11.53-2.12s-7.86-1.51-11.79-2.33c-2.64-.52-5.27-1-7.9-1.6-2.29-.47-4.63-.9-6.91-1.42-.09,0-.13,0-.22,0-6.78-1.43-13.56-2.94-20.3-4.45-25.18-5.66-50.57-12-73.15-24.49-21.51-12-39.78-29-56.92-46.64-13.56-14-26.74-28.72-38.18-44.52,158.71-28.16,583.74-104.08,592.34-111.42a3,3,0,0,0,1.29-2.16,1.54,1.54,0,0,0-.17-.74,2.75,2.75,0,0,0-.39-.64,1.29,1.29,0,0,0-.43-.44c-1.34-1.25-3.89-2.41-7.56-3.58-.6-.17-1.25-.39-1.94-.56-13.17-3.76-37.87-7.34-69.36-11.62l-5.78-.78c-9-1.21-18.49-2.46-28.38-3.8l-1.9-.26c-2.42-.34-4.83-.64-7.25-1,0,0,1.94-.13,5.48-.3.22,0,.43,0,.69,0,.56,0,1.17-.09,1.77-.09s1.08,0,1.64-.09c3-.17,6.61-.34,10.76-.52l5.48-.25c6.44-.26,13.78-.57,21.77-.78,1.85-.09,3.8-.13,5.74-.17,20-.57,43.27-.87,65.21-.31,3.16,0,6.26.13,9.33.26,3.28.13,6.48.26,9.63.43l4.54.26c3.93.22,7.73.52,11.4.82C672.34,255,672.6,275.07,671,280.34Z" transform="translate(-10.49 -8.86)" fill="#ffe27c" opacity="0.24" style="isolation: isolate;"></path><path d="M671,279.53c-14.51,47.55-30.18,97-65.08,132.45-20.25,20.51-45.69,34.89-72,46.77-8.21,2.29-17.19,5.27-27,9-59.59,22.5-133.53,30.58-193.77,33-1.3-.18-2.55-.39-3.84-.57-2.94-.38-5.92-.82-8.86-1.25-4.79-.73-9.59-1.51-14.38-2.29-3.89-.64-7.77-1.34-11.62-2-.13,0-.25,0-.34,0-3.84-.69-7.69-1.38-11.53-2.12s-7.86-1.51-11.79-2.33c-2.64-.52-5.27-1-7.9-1.6-2.29-.47-4.63-.9-6.91-1.42-.09,0-.13,0-.22,0-6.78-1.43-13.56-2.94-20.3-4.45-25.18-5.66-50.57-12-73.15-24.49-21.51-12-39.78-29-56.92-46.64-13.18-13.6-26-27.85-37.14-43.14l-.09-.09c-.3-.43-.65-.86-1-1.29C138.56,350.7,318.3,318.65,455.94,293c101.35-18.91,179.91-34.37,183.54-37.48a3,3,0,0,0,1.29-2.16,1.44,1.44,0,0,0-.17-.74,2.75,2.75,0,0,0-.39-.64,1.39,1.39,0,0,0-.43-.44c-1.34-1.25-3.89-2.42-7.56-3.58-.6-.17-1.25-.39-1.94-.56-13.17-3.76-37.87-7.34-69.36-11.62l-5.78-.78c-9-1.21-18.49-2.46-28.38-3.8l-1.9-.26c-2.42-.34-4.83-.64-7.25-1,0,0,1.94-.13,5.48-.3.22,0,.43-.05.69-.05.56,0,1.17-.08,1.77-.08s1.08,0,1.64-.09c3-.17,6.61-.34,10.76-.52l5.48-.26c6.44-.25,13.78-.56,21.77-.77,1.85-.09,3.8-.13,5.74-.18,20-.56,43.27-.86,65.21-.3,3.16,0,6.26.13,9.33.26,3.28.13,6.48.26,9.63.43l4.54.26c3.93.22,7.73.52,11.4.82C672.34,254.13,672.6,274.26,671,279.53Z" transform="translate(-10.49 -8.86)" fill="url(#linear-gradient-2)"></path><path d="M168.19,356c10.78,8.18,25.6,7.6,39.12,6.91a1061.42,1061.42,0,0,1,150.78,3c11,1,22.21,2.17,32.94-.42,9.07-2.19,17.27-6.93,25.53-11.26,45.23-23.71,95.41-36,145-48.15-6.5-6.78-16.87-7.62-26.25-8q-39.57-1.54-79.19-1.88c-15.72-.14-31.54-.12-47,2.61-16,2.83-31.4,8.52-47,13.22-34.42,10.38-70.06,15.91-105.7,20.06-14.85,1.72-29.9,2.43-44.39,5.93C207.42,339.18,168.42,356.18,168.19,356Z" transform="translate(-10.49 -8.86)" fill="url(#linear-gradient-3)"></path><path d="M396.41,278.1a25.12,25.12,0,0,1,5.87,11c2.19,9.05-.68,19.19,3.48,27.52a8.13,8.13,0,0,0,3,3.57c1.78,1,4,1,6,.85a360.48,360.48,0,0,0,62.43-9.14c5.74-1.36,11.53-2.9,16.61-5.89,6.7-4,11.71-10.18,16.57-16.26a37,37,0,0,0,5-7.47c2.37-5.2,2.19-11.17,2-16.88-.19-4.76-.4-9.63-2.15-14.07a6.78,6.78,0,0,0-2-3,7.49,7.49,0,0,0-3.65-1.22c-17.24-2.4-34.45,3.35-51.74,5.34a199.43,199.43,0,0,1-27.55.81c-9.31-.23-22.62-1.42-30.65,4.45-2.66,1.95-3.46,4.55-4.72,7.5C392.48,270.91,392.05,273.34,396.41,278.1Z" transform="translate(-10.49 -8.86)" fill="#ffe27c"></path><path d="M396.41,278.1a25.12,25.12,0,0,1,5.87,11c2.19,9.05-.68,19.19,3.48,27.52a8.13,8.13,0,0,0,3,3.57c1.78,1,4,1,6,.85a360.48,360.48,0,0,0,62.43-9.14c5.74-1.36,11.53-2.9,16.61-5.89,6.7-4,11.71-10.18,16.57-16.26a37,37,0,0,0,5-7.47c2.37-5.2,2.19-11.17,2-16.88-.19-4.76-.4-9.63-2.15-14.07a6.78,6.78,0,0,0-2-3,7.49,7.49,0,0,0-3.65-1.22c-17.24-2.4-34.45,3.35-51.74,5.34a199.43,199.43,0,0,1-27.55.81c-9.31-.23-22.62-1.42-30.65,4.45-2.66,1.95-3.46,4.55-4.72,7.5C392.48,270.91,392.05,273.34,396.41,278.1Z" transform="translate(-10.49 -8.86)" fill="url(#linear-gradient-4)"></path><path d="M235.24,302.47c0,12.52,11.84,28.8,7.89,35-2.14,3.35-19.12,0-21.83,0-7.7,0-13.94-15.66-13.94-35s6.24-35,13.94-35c2.89,0,21.66-4.43,23.88-.66C248.89,273.11,235.24,290.39,235.24,302.47Z" transform="translate(-10.49 -8.86)" fill="#606161"></path><ellipse cx="232.64" cy="293.61" rx="13.94" ry="34.99" fill="#606161"></ellipse><ellipse cx="232.64" cy="293.61" rx="13.94" ry="34.99" fill="url(#linear-gradient-5)"></ellipse><path d="M395,305.71c0,12.53,11.84,28.81,7.9,35-2.14,3.35-19.13,0-21.84,0-7.7,0-13.94-15.67-13.94-35s6.24-35,13.94-35c2.89,0,21.66-4.43,23.89-.65C408.69,276.35,395,293.63,395,305.71Z" transform="translate(-10.49 -8.86)" fill="#606161"></path><ellipse cx="392.44" cy="296.85" rx="13.94" ry="34.99" fill="#606161"></ellipse><ellipse cx="392.44" cy="296.85" rx="13.94" ry="34.99" fill="url(#linear-gradient-6)"></ellipse><ellipse cx="393.64" cy="296.6" rx="10.28" ry="25.81" fill="url(#linear-gradient-7)"></ellipse><path d="M498.57,288.52c0,9.88,9.33,22.72,6.22,27.59-1.68,2.64-15.08,0-17.21,0-6.07,0-11-12.35-11-27.59s4.92-27.58,11-27.58c2.27,0,17.08-3.49,18.83-.52C509.33,265.38,498.57,279,498.57,288.52Z" transform="translate(-10.49 -8.86)" fill="#606161"></path><ellipse cx="494.3" cy="279.66" rx="10.99" ry="27.59" fill="#606161"></ellipse><ellipse cx="494.3" cy="279.66" rx="10.99" ry="27.59" fill="url(#linear-gradient-8)"></ellipse><ellipse cx="495.03" cy="278.81" rx="8.05" ry="20.2" fill="url(#linear-gradient-9)"></ellipse><path d="M521.45,248.38,518.56,284l-2.77,11.49c-.08-8-.13-15.94-.86-23.84-.35-4.28-1-8.81-4-11.92-1.64-1.82-4.32-2.94-6.57-2.12a7.79,7.79,0,0,0-2.72,2c-4.79,5.05-6,12.44-6.86,19.39-1.08,8.08-2.16,16.15-3.24,24.27a31.84,31.84,0,0,0-.26,7.26,14.24,14.24,0,0,1-2.25.6c-5.74.82-31.18,1.6-41.41,5.7-5.66,2.29-18.23,4.88-28.42,6.78-.35-1.73-.65-3.45-.86-5.18-2-14.9,2.72-30.66-2.21-44.83-1.25-3.71-3.71-7.56-7.55-8.12s-7.3,2.51-9.68,5.66c-9.15,11.79-12.69,27-14.34,41.8-.56,4.88-2.2,9.68-2.63,14.51a13.1,13.1,0,0,0,0,2.94c-6.78.91-13.77,1.43-18.83.82-13.56-1.64-142.29-3.71-150.07-7.38A105.4,105.4,0,0,1,200,316.44s-2.9-6.17,1.21-10.28a93,93,0,0,1,7.43-40.76c.82-2,1.77-4,2.8-6a64.59,64.59,0,0,1,3.89-6.44c12.52-18,30.7-23.19,43.27-38.65,13.95-17.23,43.06-34.85,59.86-37.74s140.22-5.36,161.12,0,22.16,12.69,22.16,12.69l11.87,27.51s5.79,9.42,5.79,12.7-.43,7.38-.43,7.38Z" transform="translate(-10.49 -8.86)" fill="#ffe27c"></path><path d="M375.64,253.12l12-11.49c3.85-3.71,7.83-7.49,12.76-9.57,5.71-2.4,12.12-2.28,18.31-2.26a384.49,384.49,0,0,0,95.22-11.75l2.17,39.75c.11,2,.13,4.23-1.24,5.67a7.09,7.09,0,0,1-3,1.61c-5.56,1.84-11.38,3.24-16.31,6.4-5.22,3.35-9.09,8.44-14.07,12.14-12.51,9.26-29.57,8.29-45.07,6.91-3.29-.29-6.69-.61-9.56-2.23-1.94-1.09-3.53-2.71-5.46-3.81-7-3.95-15.83,0-21.93,5.18a58.45,58.45,0,0,0-15.91,21.64c-1.52,3.56-3.37,7.87-7.21,8.38a7.67,7.67,0,0,1-4-.72c-10-4.2-15.3-21.2-16.4-31.27C354.37,273.71,366.51,261.9,375.64,253.12Z" transform="translate(-10.49 -8.86)" fill="url(#linear-gradient-10)"></path><path d="M274.3,201.11c8.28-7,26.89-16.74,37.61-18.32,5.6-.83-4.05,2.33,56.14,2.83,52.9.45,51.34-3,50.26-.81-4.13,8.47-14.11,26.94-18.24,35.41-1,2.13-2.15,4.35-4.08,5.72-2.3,1.63-5.31,1.74-8.13,1.79-9.77.15-19.55.15-29.32.14h-53c-7.29,0-14.58,0-21.86-.21-6.39-.18-14.47.54-20.57-1.54C248.76,221.2,268.78,205.76,274.3,201.11Z" transform="translate(-10.49 -8.86)" fill="url(#linear-gradient-11)"></path><path d="M449.35,226.68a2.71,2.71,0,0,1-.23,1.79,2.63,2.63,0,0,1-1.66.86c-11,2.67-22.42,5.33-33.41,2.76-2.7-.63-5.72-2-6.35-4.69a8.54,8.54,0,0,1,.66-4.54c2.68-7.82,5.39-15.71,9.63-22.81a43,43,0,0,1,10.86-12.56c4.79-3.55,7.56-1.81,10.13,3.15C444.69,201.66,448,214.4,449.35,226.68Z" transform="translate(-10.49 -8.86)" fill="url(#linear-gradient-12)"></path><path d="M446.72,196.84l2.31,7.07c.92,2.82,1.85,5.64,2.56,8.52a63.78,63.78,0,0,1,1.87,14.29c0,.87.14,1.93.93,2.27a2.28,2.28,0,0,0,1.27,0l15-2.4,6.65-1c1.53-.25,3.3-.66,4-2.06a4,4,0,0,0,.27-2,27.4,27.4,0,0,0-1.34-6.05l-1.75-5.78c-2.31-7.63-4.67-15.36-8.91-22.11a5.77,5.77,0,0,0-2-2.2,6.07,6.07,0,0,0-2.81-.48c-5.94-.07-12.14-.27-18,.42-2.15.25-3.69.88-3,3.19C444.44,191.29,445.81,194.05,446.72,196.84Z" transform="translate(-10.49 -8.86)" fill="url(#linear-gradient-13)"></path><path d="M482.09,202.9c2.24,6.72,3.34,13.76,4.59,20.73a1,1,0,0,0,.33.7,1,1,0,0,0,.75.08c2.92-.48,13.44-3.92,16.06-3.9a2.65,2.65,0,0,0,1.34-.21,1.93,1.93,0,0,0,.87-1.83,7.46,7.46,0,0,0-.57-2.05c-1.37-3.79-4.47-20-18.6-27.5a39.84,39.84,0,0,0-6-2c-1.16-.4-4.27-2-5.44-.92s1,3.73,1.56,4.88A94.69,94.69,0,0,1,482.09,202.9Z" transform="translate(-10.49 -8.86)" fill="url(#linear-gradient-14)"></path><path d="M238.32,271.61c-7.94-5-17.88-5-27.25-5.26a3.23,3.23,0,0,1-2.11-.57,1.73,1.73,0,0,1-.3-.38c.82-2,1.77-4,2.8-6a64.59,64.59,0,0,1,3.89-6.44c2.12-.86,4.06-.26,6.69,1.34C228.91,258.44,233.75,265.09,238.32,271.61Z" transform="translate(-10.49 -8.86)" fill="url(#linear-gradient-15)"></path><path d="M304.33,272.36q11.34-5.06,23-9.2a81.62,81.62,0,0,1,9.14-2.8,94.33,94.33,0,0,1,10.17-1.6l19.39-2.36c.61-.07,1.37-.07,1.67.46a1.37,1.37,0,0,1,.08.94c-.38,1.93-1.84,3.43-3.24,4.81l-6.26,6.21c-2.64,2.61-5.39,5.3-8.87,6.6a23.47,23.47,0,0,1-7.92,1.11c-7.94.1-15.84-.76-23.75-1.24-4-.23-8-.38-12-.26-.81,0-4.74.76-5.08-.15S303.62,272.67,304.33,272.36Z" transform="translate(-10.49 -8.86)" fill="url(#linear-gradient-16)"></path><path d="M219.8,308.84c-1.9,2.07-4.15,3.71-6.83,3.54a12.87,12.87,0,0,1-3.93-1.29c-3.58-1.73-7.81-2.38-8.55-6.52-.69-3.93.87-8.64,3-11.88A76.54,76.54,0,0,1,217.47,306C218.24,306.9,219,307.89,219.8,308.84Z" transform="translate(-10.49 -8.86)" fill="url(#linear-gradient-17)"></path><path d="M325.73,311.86a69.6,69.6,0,0,1-7.77,2.51c-10.24,2.59-20.9,2.29-31.44,2q-25.65-.78-51.26-1.47c-3.8-.13-7.82-.26-11.1-2.2a17.71,17.71,0,0,1-4.36-3.89c.69-.78,1.34-1.6,1.94-2.42.17-.21.3-.43.48-.65,2.67-3.62,5.48-7.42,9.45-9.63,3.42-1.9,7.35-2.46,11.23-2.93a296.62,296.62,0,0,1,44.31-1.9,68.65,68.65,0,0,1,13.35,1.47,37.63,37.63,0,0,1,19.64,12.13c.74.86,1.43,1.77,2.12,2.68C323.44,309.06,324.52,310.53,325.73,311.86Z" transform="translate(-10.49 -8.86)" fill="url(#linear-gradient-18)"></path><path d="M325.73,306.38c-1.12.43-2.29.86-3.41,1.21-.69-.91-1.38-1.82-2.12-2.68a37.63,37.63,0,0,0-19.64-12.13,68.65,68.65,0,0,0-13.35-1.47,296.62,296.62,0,0,0-44.31,1.9c-3.88.47-7.81,1-11.23,2.93-4,2.21-6.78,6-9.45,9.63a17.76,17.76,0,0,1-2.42-2.41c.69-.78,1.34-1.6,1.94-2.42,2.85-3.85,5.74-7.95,9.93-10.28,3.42-1.9,7.35-2.46,11.23-2.94a299.31,299.31,0,0,1,44.31-1.9,69.44,69.44,0,0,1,13.35,1.47,37.71,37.71,0,0,1,19.64,12.14C322.1,301.67,323.79,304.22,325.73,306.38Z" transform="translate(-10.49 -8.86)" fill="url(#linear-gradient-19)"></path><path d="M366,298.82a42.65,42.65,0,0,1-5.44,13.43A10.47,10.47,0,0,1,357,316a10.81,10.81,0,0,1-4.19,1,125.94,125.94,0,0,1-13.3.61,21.42,21.42,0,0,1-7.56-1.08,16.22,16.22,0,0,1-6.26-4.67C339.12,306.81,351.77,298.74,366,298.82Z" transform="translate(-10.49 -8.86)" fill="url(#linear-gradient-20)"></path><path d="M473.26,241c10.37-2.82,21.11-5.83,31.72-4.15,2.16.34,4.46,1,5.78,2.72,1.71,2.24,1.19,5.42.34,8.11-.59,1.86-1.42,3.84-3.13,4.78a8.19,8.19,0,0,1-4.11.68c-20.89-.2-42.73-3.26-61.94,4.94-6.38,2.72-12.41,6.68-19.29,7.56-2.58.33-1.07-9.46.29-10.82,3-3,9.57-3.31,13.41-4.27C448.66,247.48,461,244.35,473.26,241Z" transform="translate(-10.49 -8.86)" fill="url(#linear-gradient-21)"></path><path d="M408.21,236.11a4,4,0,0,1,2,.56c.93.67,1.12,1.94,1.24,3.08.34,3.21.51,6.9-1.77,9.18-1.44,1.43-3.52,1.94-5.5,2.4l-4.75,1.09c-2.44.56-5,1.12-7.44.58-4.66-1-12.38-9.14-7.28-13.46C390.17,234.9,401.61,235.46,408.21,236.11Z" transform="translate(-10.49 -8.86)" fill="#ffe27c"></path><path d="M346.48,255.21c-8.07,1.87-16.43,1.91-24.72,1.84-23.69-.2-47.38-1.21-71.06-2.21-6.17-.26-12.35-.53-18.49-1.24-3.19-.37-7.12-1.57-7.54-4.76-.23-1.73.76-3.38,1.77-4.81a58.94,58.94,0,0,1,29.13-21.69,4,4,0,0,1,2.32-.28c1,.28,1.57,1.21,2.23,2,3.4,4,9.3,4.47,14.55,4.55,23.41.35,46.8-1.24,70.18-2.22,11.86-.5,23.73-.84,35.6-.7,4,0,8.94-.67,6.84,4.68-1.41,3.61-7.14,6.77-10.1,9C368,246.41,357.86,252.57,346.48,255.21Z" transform="translate(-10.49 -8.86)" fill="url(#linear-gradient-22)"></path><path d="M446.94,302.42c-5,1-10.12,1.82-14.92,3.6a3.48,3.48,0,0,0-1.92,1.3c-.71,1.22.31,2.87,1.65,3.33a7.24,7.24,0,0,0,4.18-.29q14.9-4.1,29.44-9.37c7.16-2.6,16.33-5.67,21.28-11.77-3.29-1.53-14.6,5.69-18.42,7.1A145.72,145.72,0,0,1,446.94,302.42Z" transform="translate(-10.49 -8.86)" fill="url(#linear-gradient-23)"></path><path d="M339,154.62s25.84,4.56,48.63.91,87.55.61,93,.3a4.53,4.53,0,0,1,5.17,4.87s-91.47,4.1-104.1,4.94-45.15-2.21-45.46-5.25S339,154.62,339,154.62Z" transform="translate(-10.49 -8.86)" fill="#ffe27c"></path><path d="M339,154.62s25.84,4.56,48.63.91,87.55.61,93,.3a4.53,4.53,0,0,1,5.17,4.87s-91.47,4.1-104.1,4.94-45.15-2.21-45.46-5.25S339,154.62,339,154.62Z" transform="translate(-10.49 -8.86)" fill="url(#linear-gradient-24)"></path><path d="M387.53,164.17c-1.6,1.25-3.8,1.38-5.83,1.47l-21.2.9h-.05l-19.34.78c-1.6.09-3.24.13-4.84.22-1,0-2,.08-3,.21-4.67.35-8.77,1-13.61-.21a8.76,8.76,0,0,1-3.88-2c-2.51-2.12-2.16-5.35.69-7.77,3.67-3.16,7.73-6.48,12.61-6.78,4.49-.31,8.68,2.07,12.78,4a80.14,80.14,0,0,0,39.56,7.78C383.56,162.66,386.06,162.57,387.53,164.17Z" transform="translate(-10.49 -8.86)" fill="#ffe27c"></path><path d="M383.65,162.52,485,157.46s2.23,1.62.81,3.24S374.53,166,374.53,166Z" transform="translate(-10.49 -8.86)" fill="#ffe27c"></path><path d="M383.65,162.52,485,157.46s2.23,1.62.81,3.24S374.53,166,374.53,166Z" transform="translate(-10.49 -8.86)" fill="url(#linear-gradient-25)"></path><path d="M360.45,166.54l-19.34.78c-.52,0-1.08,0-1.6,0-.82-.05-1.63.35-2.37,0a57.77,57.77,0,0,1-7.8-5.52c-1.17-1.08-2.61-4.42-2.4-6,6.05-.05,11.75,2.11,17.19,4.45,2.76,1.2,5.53,2.46,8.29,3.54C354.75,164.69,358.68,165.12,360.45,166.54Z" transform="translate(-10.49 -8.86)" fill="url(#linear-gradient-26)"></path><path d="M333.25,167.75c-4.67.35-8.77,1-13.61-.21a8.76,8.76,0,0,1-3.88-2,3.89,3.89,0,0,1,.43-2.2,10,10,0,0,1,1.9-2.46c1.55-1.73,3.37-3.59,5.7-3.93.17,0,.39-.05.52,0a1,1,0,0,1,.43.3C324.63,162,332.77,167,333.25,167.75Z" transform="translate(-10.49 -8.86)" fill="url(#linear-gradient-27)"></path><path d="M437.46,175.59s-4.26-10.94-9.73-11.55-55.93-.61-57.45.91-6.69,10-6.69,10Z" transform="translate(-10.49 -8.86)" fill="#ffe27c"></path><path d="M437.46,175.59s-4.26-10.94-9.73-11.55-55.93-.61-57.45.91-6.69,10-6.69,10Z" transform="translate(-10.49 -8.86)" fill="url(#linear-gradient-28)"></path><path d="M432.09,157.46l-32.48-1.63a10.07,10.07,0,0,1-10.08-10.07V128.62c0-3.08-13.53-5.79-11.35-7.64,1.76-1.49,18.95-2.43,21.43-2.43h47.93a10.07,10.07,0,0,1,10.08,10.07v17.14c0,2-.73,6-4.25,7.84C447,156.9,435.67,157.46,432.09,157.46Z" transform="translate(-10.49 -8.86)" fill="#ffe27c"></path><path d="M432.09,157.46l-32.48-1.63a10.07,10.07,0,0,1-10.08-10.07V128.62c0-3.08-13.53-5.79-11.35-7.64,1.76-1.49,18.95-2.43,21.43-2.43h47.93a10.07,10.07,0,0,1,10.08,10.07v17.14c0,2-.73,6-4.25,7.84C447,156.9,435.67,157.46,432.09,157.46Z" transform="translate(-10.49 -8.86)" fill="url(#linear-gradient-29)"></path><rect x="360.7" y="111.71" width="68.09" height="37.29" rx="10.08" fill="#ffe27c"></rect><rect x="360.7" y="111.71" width="68.09" height="37.29" rx="10.08" fill="url(#linear-gradient-30)"></rect><rect x="381.88" y="110.5" width="5.47" height="38.48" fill="url(#linear-gradient-31)"></rect><rect x="408.02" y="109.75" width="5.47" height="39.23" fill="url(#linear-gradient-32)"></rect></svg>